<?xml version="1.0" encoding="UTF-8" standalone="no"?>
<!-- Created with Inkscape (http://www.inkscape.org/) -->

<svg
   width="820mm"
   height="282mm"
   viewBox="0 0 820 282"
   version="1.1"
   id="svg5"
   xml:space="preserve"
   inkscape:version="1.2.2 (b0a8486541, 2022-12-01)"
   sodipodi:docname="pfl.svg"
   xmlns:inkscape="http://www.inkscape.org/namespaces/inkscape"
   xmlns:sodipodi="http://sodipodi.sourceforge.net/DTD/sodipodi-0.dtd"
   xmlns="http://www.w3.org/2000/svg"
   xmlns:svg="http://www.w3.org/2000/svg"><sodipodi:namedview
     id="namedview7"
     pagecolor="#ffffff"
     bordercolor="#111111"
     borderopacity="1"
     inkscape:showpageshadow="0"
     inkscape:pageopacity="0"
     inkscape:pagecheckerboard="1"
     inkscape:deskcolor="#d1d1d1"
     inkscape:document-units="mm"
     showgrid="false"
     showguides="false"
     inkscape:zoom="0.3895584"
     inkscape:cx="1893.1693"
     inkscape:cy="548.05647"
     inkscape:window-width="1920"
     inkscape:window-height="1134"
     inkscape:window-x="0"
     inkscape:window-y="35"
     inkscape:window-maximized="1"
     inkscape:current-layer="svg5" /><defs
     id="defs2" /><g
     id="g3042"
     style="fill:#a12404;fill-opacity:1;stroke:none"><path
       id="path962"
       style="fill:#a12404;fill-opacity:1;stroke:none;stroke-width:0.270989;stroke-opacity:1"
       d="m 237.96776,29.429423 c -6.547,0.147308 -12.72224,2.651787 -18.6822,5.135336 -4.0819,1.7884 -8.47429,3.5484 -13.02033,3.026343 -2.78113,-0.295277 -5.43096,-2.017275 -6.53134,-4.634953 -1.13686,2.649739 -1.3905,5.911778 0.2664,8.407273 1.68051,2.571851 4.56983,4.221364 7.53841,4.824809 1.47534,0.128903 3.07986,0.364669 4.13965,1.510951 1.86022,1.943112 2.94157,4.474935 4.00738,6.906939 1.69336,4.2837 1.79774,9.195981 0.19948,13.523263 1.25351,1.16287 2.4258,2.494239 3.14665,4.052835 1.40407,7.150948 2.09222,14.627685 0.45943,21.800967 -0.70463,2.985118 -1.83872,5.933934 -3.74611,8.365244 1.89166,-0.32983 3.83896,-0.39835 5.71359,0.0762 4.44055,0.89137 8.89109,2.60079 13.48837,1.88621 0.62719,-0.11486 1.254,-0.25051 1.84838,-0.4861 -3.71402,-1.14433 -6.22062,-4.475405 -7.77277,-7.875865 -2.50071,-5.559739 -3.4145,-11.679683 -3.89086,-17.712123 -0.16722,-2.300017 -0.24299,-4.608024 -0.21882,-6.91469 4.59193,-0.262824 9.23266,-0.888883 13.85094,-1.440177 6.91074,-0.917257 13.87308,-3.516586 18.79966,-8.608736 2.99948,-3.139112 5.32243,-7.28301 5.2592,-11.727567 -0.23623,-4.817345 -2.16206,-9.485433 -5.08304,-13.292734 -2.48125,-3.204089 -6.12266,-5.71214 -10.24413,-6.047001 -3.16256,-0.384862 -6.33377,-0.842223 -9.52794,-0.776403 z m -4.66297,7.271497 c 3.27648,-0.0081 6.56949,0.48168 9.668,1.55632 3.50199,3.054957 5.74735,7.508297 6.00024,12.158837 0.14048,2.339888 -0.0839,4.723659 -0.81318,6.957095 -5.58247,4.648853 -12.87197,7.221168 -20.14431,6.930553 -1.7347,-0.06801 -3.47496,-0.254629 -5.15289,-0.713274 -1.49969,-7.144265 -2.99923,-14.288568 -4.50093,-21.432409 3.93225,-3.507436 9.17441,-5.351458 14.41233,-5.447176 0.17685,-0.0055 0.35385,-0.0061 0.53074,-0.0099 z" /><path
       style="fill:#a12404;fill-opacity:1;stroke:none;stroke-width:0.264583;stroke-opacity:1"
       d="m 275.85024,45.486079 c 0,0 -0.0433,-16.604213 26.04542,-9.330748 0,0 24.30786,2.827969 18.22271,-4.875261 0,0 -4.1317,-3.170488 1.90549,-2.513751 6.03719,0.656737 10.19127,8.36849 10.51658,12.023244 0.32531,3.654754 -1.33293,11.295437 -9.79436,11.762145 0,0 -3.60673,-1.248077 1.91082,-3.990887 5.51755,-2.742809 -4.34238,-6.21477 -7.54482,-4.446156 -3.20244,1.768615 -11.16308,2.513342 -20.34248,-0.208191 0,0 -2.44815,12.307305 0.39484,18.029494 0,0 9.13823,0.144349 15.09925,3.006609 5.96102,2.86226 10.77825,-1.685923 8.47197,-4.971834 -2.30629,-3.285911 2.4669,-0.142417 3.13354,0.950064 0.66665,1.09248 3.1483,3.737839 -1.30975,10.733872 0,0 -2.78994,2.999 1.85655,6.449781 4.64649,3.450782 -5.84071,1.94079 -8.24258,-3.032733 -2.40187,-4.973524 -3.18193,-4.684168 -8.99877,-4.640583 -5.81684,0.04358 -9.60789,-0.0015 -9.60789,-0.0015 0,0 0.72443,17.559375 -0.009,20.305734 0,0 6.17972,-0.975315 16.09246,6.765405 0,0 6.98977,4.269207 14.82022,-1.008932 0,0 3.31094,-1.593369 0.51142,-7.638665 -2.79951,-6.045295 8.51521,3.273316 8.94854,8.222371 0.43333,4.949053 -0.80745,16.412273 -10.7506,14.344773 l -2.85454,-1.19043 c 0,0 5.26059,-0.18972 3.77776,-4.1391 0,0 -13.33836,3.65664 -24.97671,-3.91984 -11.63834,-7.576484 -18.6551,-2.494482 -20.15056,-0.90996 -1.49545,1.58451 -5.50421,4.59554 -2.33201,-1.758114 3.1722,-6.353654 6.21581,-6.991843 6.21581,-6.991843 0,0 1.7123,-2.328116 -0.2133,-23.646843 0,0 -3.39118,-1.3198 -7.05724,2.283248 -3.66605,3.603048 0.38643,-6.550391 6.27333,-7.396467 0,0 0.16887,-18.335002 -0.56693,-19.964558 -0.7358,-1.629556 -3.85063,-4.119504 -9.44517,1.699656 z"
       id="path1075" /><path
       id="path1077"
       style="fill:#a12404;fill-opacity:1;stroke:none;stroke-width:0.264583;stroke-opacity:1"
       d="m 374.67997,32.2802 c -0.38438,-0.0042 -0.76861,0.0028 -1.15238,0.02067 -4.77923,0.319866 -8.94764,3.189911 -12.23026,6.494177 -3.13849,3.188892 -5.66658,6.889537 -7.68481,10.801925 -2.03191,3.985717 -3.682,8.384285 -3.98838,12.929443 -0.50576,3.916562 -1.65059,8.030619 -4.5558,10.868587 -0.6905,0.34488 -0.15243,0.586709 0.24805,0.907955 2.62623,2.244421 3.42218,5.800571 4.03645,9.041826 0.92754,5.043469 1.41251,10.163521 2.41432,15.192871 1.00168,4.328636 3.69371,8.110656 7.32152,10.668086 3.48427,2.48157 7.50965,3.93761 11.72486,4.63331 2.29283,0.31851 4.66671,0.58172 6.95513,0.1142 3.24821,-0.93484 5.80798,-3.33661 8.08685,-5.72678 4.13379,-4.56866 7.34359,-9.858728 9.74204,-15.535488 1.14891,-2.679661 1.94696,-5.49902 2.5864,-8.374683 0.82224,-3.064486 1.72572,-6.243782 3.72484,-8.773107 0.43697,-0.522146 0.95136,-0.991755 1.56373,-1.299146 -2.83532,-2.620737 -3.86062,-6.495055 -4.67362,-10.130648 -0.95129,-5.11555 -3.01635,-9.926134 -5.07307,-14.676107 -1.19534,-2.672716 -2.38069,-5.355856 -3.72019,-7.958687 -2.50376,-4.424259 -6.84194,-7.892387 -11.88971,-8.844421 -1.13056,-0.227108 -2.28282,-0.341291 -3.43597,-0.353984 z m 0.5054,6.569108 c 1.52873,-0.02636 3.0114,0.594142 4.15633,1.597836 2.6212,2.348534 3.90097,5.778652 4.88653,9.068697 1.46798,5.232394 2.04609,10.594898 2.36833,15.990238 0.3121,6.393448 0.43609,12.932501 -0.39068,19.27841 -0.73291,5.343299 -2.06162,10.819808 -5.23379,15.197005 -1.40634,1.895416 -3.1157,3.432086 -5.27461,4.371826 -1.07686,0.40041 -2.26783,0.85983 -3.42563,0.63665 -4.29224,-1.36853 -7.62,-4.80738 -9.85211,-8.617041 -3.14882,-5.45681 -4.3944,-11.896411 -4.78214,-18.161682 -0.38878,-7.582146 0.0804,-15.347138 2.33319,-22.650814 1.67794,-5.281786 4.37734,-10.484964 8.79636,-13.977441 1.82583,-1.275965 3.82688,-2.559951 6.11178,-2.719731 0.10223,-0.0076 0.20452,-0.0122 0.30644,-0.01395 z" /><path
       id="path1842"
       style="fill:#a12404;fill-opacity:1;stroke:none;stroke-width:0.264583;stroke-opacity:1"
       d="m 430.24402,26.065592 c -7.56526,0.0057 -15.02964,2.694361 -17.77462,5.070492 -6.27425,5.431161 -13.04079,10.862214 -7.3825,19.459277 0,0 3.12308,-13.366501 8.01502,-5.64875 4.89194,7.717749 0.21498,17.94847 -1.5596,21.233329 0,0 3.78301,2.705578 0.81649,21.843628 -2.96652,19.138052 -3.25648,13.241902 -10.54509,23.988712 0,0 9.11175,-5.04876 17.34933,1.40715 8.23758,6.45592 13.5015,-0.93947 13.5015,-0.93947 0,0 -0.85509,-0.59106 -5.64979,-0.27337 -4.79469,0.31769 -5.59507,-20.376211 -4.09846,-40.268345 0,0 27.62677,0.848058 27.19214,-26.224239 C 449.86398,30.485839 439.97079,26.05824 430.24402,26.065592 Z m -3.17396,6.73809 c 4.57946,-0.01515 11.16742,1.863759 12.37237,12.439034 1.8809,16.507749 -10.33133,17.406066 -17.59479,17.450098 l 0.71675,-29.276249 c 0,0 1.9367,-0.604385 4.50567,-0.612883 z" /><path
       style="fill:#a12404;fill-opacity:1;stroke:none;stroke-width:0.264583;stroke-opacity:1"
       d="m 482.41026,24.2512 c 0,0 -10.81101,5.970093 -13.93267,25.363149 -3.12166,19.393058 -4.81761,40.433367 -4.81761,40.433367 0,0 8.86151,1.884863 15.76023,9.294466 0,0 5.12124,2.033828 9.02572,-0.115539 0,0 1.21922,-12.404975 7.07556,-10.8617 0,0 -2.42792,6.270741 2.12772,15.108267 4.55563,8.83753 -16.05762,7.45581 -23.504,2.15479 -7.44639,-5.30103 -14.45885,-10.852511 -23.73093,-0.0165 0,0 -0.14185,-9.271638 4.85129,-15.986435 4.99315,-6.714798 5.38621,-46.350891 2.86424,-47.527213 0,0 -0.44582,-2.653927 -3.57191,-0.452672 -3.12609,2.201255 -0.0913,-6.014587 4.64893,-8.197399 0,0 2.51163,-1.159011 3.87314,-3.840856 0,0 7.03809,0.466547 15.81114,-5.084235 8.77306,-5.550783 3.51915,-0.27149 3.51915,-0.27149 z"
       id="path1849" /><path
       style="fill:#a12404;fill-opacity:1;stroke:none;stroke-width:0.264583;stroke-opacity:1"
       d="m 495.42461,51.156115 c 0,0 2.71161,-18.75492 22.06165,-13.45302 19.35004,5.301901 23.8116,2.348495 24.49817,0.617149 0.68656,-1.731343 -3.97495,-7.678216 -1.25966,-7.16671 2.71529,0.511508 11.66916,6.619909 8.93101,14.672595 -2.73817,8.052684 -8.95223,10.285579 -17.9269,7.396136 0,0 10.91606,-0.687168 6.41769,-4.506255 0,0 -12.50973,-0.695199 -16.72637,-1.213141 -4.21665,-0.517941 -6.2111,25.438086 -6.2111,25.438086 0,0 7.35985,-0.238668 12.46821,0.76481 5.10836,1.003478 6.16522,-4.235087 4.9475,-6.412589 -1.21772,-2.177502 0.39922,-3.747872 1.42645,-4.303514 0,0 0.0496,2.947914 3.90405,4.905438 3.85447,1.957524 3.47884,4.62561 3.47884,4.62561 l 2.54836,-0.0053 c 0,0 -6.66397,12.232635 -25.17999,7.522926 l -4.11828,1.177631 -1.89042,17.09706 c 0,0 5.69248,-2.151794 8.84398,-1.754558 3.15149,0.397236 14.70789,3.987051 17.85495,3.282397 3.14706,-0.704654 4.28229,-3.019524 3.41496,-4.598268 -0.86732,-1.578745 -1.44501,-9.879947 6.17859,-9.60314 0,0 1.45594,1.34673 -0.74822,4.228025 -2.20416,2.881295 3.05246,2.693926 5.17047,5.208143 2.11802,2.514217 8.4558,8.911094 -3.90304,14.399124 -12.35884,5.48803 -27.02336,-1.39295 -27.02336,-1.39295 0,0 -18.33498,-3.663 -20.86116,9.12848 -2.52617,12.79149 -4.1746,-6.33409 -0.20083,-11.86119 3.97376,-5.527104 2.09528,-15.688337 2.09528,-15.688337 0,0 3.66718,-11.978559 -2.57242,-7.17216 -6.23961,4.806399 0.0856,-6.671917 4.98183,-7.353357 0,0 5.43967,-28.904861 -1.1174,-30.557505 0,0 -5.09057,2.649577 -9.48284,6.578384 z"
       id="path1851" /><path
       style="fill:#a12404;fill-opacity:1;stroke:none;stroke-width:0.264583;stroke-opacity:1"
       d="m 557.95383,51.006528 c 0,0 6.6077,3.947948 12.21936,-0.159938 5.61165,-4.107889 16.32823,-13.465151 5.33138,-22.9651 0,0 -11.18689,-3.988963 -13.92629,7.518219 0,0 -0.72995,4.370521 3.99953,4.117313 0,0 -0.3103,-4.326633 3.48647,-3.117293 3.79676,1.20934 2.19084,8.465883 -0.2251,10.679605 -2.41594,2.213723 -10.88535,3.927194 -10.88535,3.927194 z"
       id="path1853" /><path
       style="fill:#a12404;fill-opacity:1;stroke:none;stroke-width:0.264583;stroke-opacity:1"
       d="m 626.41998,51.028165 c 0,0 8.25701,5.895084 17.64924,-4.49898 0,0 3.55279,-7.515981 -0.35108,-12.461367 0,0 -3.26068,12.941366 -10.05766,7.672513 -6.79699,-5.268854 -12.66118,-15.047099 -29.58125,-2.980903 0,0 -8.78773,8.765334 -5.04633,22.413762 0,0 3.94831,7.440176 8.25267,10.296201 4.30436,2.856024 9.90872,9.507339 -1.05893,26.283397 0,0 -10.11182,13.253142 -25.20022,0.255958 0,0 -7.05541,-14.765134 -18.4621,-6.995092 0,0 7.99672,0.598859 5.06299,9.438706 -2.93374,8.83985 -1.56639,8.60834 0.32739,10.26412 0,0 1.16827,-6.64804 8.80255,-1.40837 7.63428,5.23967 24.30459,5.9952 40.61614,-4.08054 16.31154,-10.075753 6.41855,-34.222399 6.41855,-34.222399 0,0 -10.75551,-17.209048 -10.22131,-20.034929 0.53419,-2.82588 -1.12067,-10.247265 7.84907,-12.375123 0,0 12.73719,7.032025 5.00028,12.433046 z"
       id="path1855" /><path
       style="fill:#a12404;fill-opacity:1;stroke:none;stroke-width:0.264583;stroke-opacity:1"
       d="m 146.51631,119.34386 c 0,0 2.40702,5.84967 10.08831,8.96486 7.68129,3.11519 11.49222,35.72731 8.03252,38.3422 -3.45971,2.61489 -4.90821,3.11457 -4.90821,3.11457 0,0 4.30944,2.9538 8.35589,6.17965 4.04645,3.22585 6.41847,41.0748 1.66532,52.97848 -4.75315,11.90367 -10.57206,17.11573 -6.54906,16.90804 0,0 6.7878,-7.46931 14.79816,-3.61653 8.01037,3.85279 16.81996,17.63107 29.36326,16.33532 0,0 5.62924,-0.94894 8.2627,-3.57528 0,0 -13.74301,5.38818 -18.99059,-20.07402 -5.24758,-25.4622 -10.67523,-60.97235 -10.67523,-60.97235 0,0 7.87034,-5.9568 10.96293,-3.81862 3.0926,2.13818 -3.58052,8.72462 -3.58052,8.72462 0,0 16.59517,-0.55405 7.20196,-25.99319 0,0 -5.86618,12.78164 -16.47023,13.26355 l -7.99716,-38.14421 25.13655,-6.50609 c 0,0 5.89367,-0.4941 0.60886,4.22978 -5.2848,4.72388 8.46833,-0.42506 9.48639,-3.73771 1.01805,-3.31265 10.23586,-14.3371 -7.71595,-23.602242 0,0 -5.67972,-2.357361 -1.52066,2.731722 4.15906,5.08909 -17.56829,18.78211 -28.01969,19.31843 -10.4514,0.53633 -20.59171,1.99187 -27.53555,-1.05098 z"
       id="path1871" /><path
       id="path2227"
       style="fill:#a12404;fill-opacity:1;stroke:none;stroke-width:0.264583;stroke-opacity:1"
       d="m 223.78841,125.24455 c -14.29301,0.14389 -25.72401,13.08706 -25.72401,13.08706 l 0.0465,1.76165 c 0.27123,-0.35507 4.55512,-8.65872 9.24957,9.59734 4.69444,18.25608 0.36122,18.7663 0.36122,18.7663 7.13492,5.09019 7.244,12.8633 7.244,12.8633 3.55736,26.53878 -2.2689,34.74408 -4.63641,36.91713 1.8741,-1.09793 6.30279,-2.12961 10.57197,8.5018 5.60714,13.96331 12.75426,18.13171 12.75426,18.13171 -5.38104,-3.97214 -8.68758,-39.94661 -8.61188,-46.28193 0.0757,-6.33532 -2.88871,-25.9457 -2.88871,-25.9457 16.11164,5.82162 14.24305,23.87244 14.24305,23.87244 -3.76058,23.17247 6.67067,42.20376 10.04694,46.49122 3.37626,4.28748 -2.45929,6.04873 -2.45929,6.04873 3.55583,2.69494 11.2851,2.75487 11.2851,2.75487 26.09322,-5.13867 12.17704,-24.22281 12.17704,-24.22281 1.96863,12.81403 -19.06443,7.59199 -18.17925,-24.14271 0.88518,-31.73471 -17.94568,-38.17493 -17.94568,-38.17493 2.69853,-0.93964 27.72703,-19.95053 7.39542,-34.94929 -5.08291,-3.74969 -10.16551,-5.12414 -14.92984,-5.07618 z m -13.45913,92.99278 c -0.58734,0.34408 -0.93069,0.69504 -0.93069,0.69504 0,0 0.36858,-0.1791 0.93069,-0.69504 z m 11.64942,-84.12924 c 5.22295,0.006 9.77273,2.63011 12.38116,10.98021 3.97472,12.72396 -13.3237,19.40938 -14.57328,18.1653 -1.24956,-1.24408 -6.3872,-27.44535 -6.3872,-27.44535 2.92272,-0.98767 5.84349,-1.70313 8.57932,-1.70016 z" /><path
       style="fill:#a12404;fill-opacity:1;stroke:none;stroke-width:0.264583;stroke-opacity:1"
       d="m 245.72008,130.54597 c 0,0 1.48244,-12.19669 24.11298,-5.21251 0,0 17.24651,-1.45336 13.53417,-11.97833 0,0 12.26724,0.66038 9.49287,12.73119 -2.77438,12.07081 -12.2551,6.72648 -12.2551,6.72648 0,0 5.72477,-0.74807 4.74559,-3.15746 -0.97918,-2.40939 -8.1521,3.07021 -10.9846,4.24358 -2.83249,1.17337 -8.97275,2.60383 -11.42983,1.66984 0,0 0.40256,23.99519 1.46377,27.37648 0,0 17.35602,2.31139 12.48043,-8.78686 0,0 6.43463,-0.035 7.26014,9.02629 0.82551,9.06128 -7.71697,11.22013 -9.22509,11.25143 0,0 -0.98555,-1.02095 1.7722,-3.1901 l -11.71111,-0.37893 c 0,0 2.68222,30.88026 2.31985,33.04578 -0.36237,2.16552 -0.36237,2.06093 -0.36237,2.06093 0,0 6.25946,2.53086 10.45277,5.75326 4.1933,3.22241 14.85886,-2.96795 13.44247,-8.82444 0,0 5.28642,3.21825 1.52115,14.5153 -3.76528,11.29706 1.37532,10.1941 1.37532,10.1941 0,0 -7.58179,2.72977 -20.61402,-9.06092 -13.03222,-11.79069 -20.31285,-2.83224 -20.31285,-2.83224 0,0 3.84071,-14.26116 2.45564,-26.61339 -1.38506,-12.35223 -0.28807,-20.28829 -3.69851,-17.2694 -3.41043,3.0189 -4.20947,4.47314 2.35221,-7.67196 0,0 0.0898,-22.21613 -1.94057,-31.55404 0,0 -0.3014,-3.58484 -6.24751,-2.06408 z"
       id="path2232" /><path
       style="fill:#a12404;fill-opacity:1;stroke:none;stroke-width:0.264583;stroke-opacity:1"
       d="m 288.62977,143.40965 c 0,0 -1.75006,-13.17279 19.38862,-14.64079 21.13864,-1.468 17.75775,-9.37022 16.07449,-12.10999 -1.68325,-2.73977 11.28168,1.01745 13.28127,10.86257 1.99956,9.84512 -6.61099,10.99412 -11.76163,11.05108 0,0 6.85643,-5.1604 1.70492,-5.71254 -5.15151,-0.55214 -5.49516,4.17496 -11.41241,4.68572 -5.91724,0.51075 -7.16674,0.25565 -7.16674,0.25565 0,0 -0.31955,26.58936 -0.31955,29.78231 0,0 20.76661,-0.64698 21.89603,-2.7804 1.12941,-2.13342 0.55589,-6.02253 0.55589,-6.02253 v 0 c 0,0 10.10972,3.9445 4.44099,13.4151 -5.66872,9.47061 -10.33701,3.90755 -10.33701,3.90755 0,0 5.17865,-1.20284 3.82891,-2.5862 -1.34974,-1.38336 -5.30186,-2.92937 -19.64837,1.98735 l 3.67591,34.47719 c 0,0 6.75077,-0.73282 13.30298,8.76514 6.55221,9.49795 19.4951,-0.34879 17.30451,-4.54562 -2.19059,-4.19682 -1.0472,-7.12876 -8.8279,-5.41815 0,0 5.86009,-11.55232 14.44638,-3.25017 8.58629,8.30216 7.98914,0.36529 7.98914,0.36529 0,0 3.27519,6.46572 -9.51678,20.61708 -12.79197,14.15137 -34.05101,-5.50764 -34.05101,-5.50764 0,0 -6.10477,-4.97137 -16.66981,1.88066 0,0 2.9199,-9.18688 0.72652,-40.7996 0,0 -0.96889,-10.44666 -9.42469,-2.18391 0,0 -0.69334,-6.2748 9.31987,-11.08197 l 0.19631,-28.00484 c 0,0 -1.66553,-7.97989 -8.99684,2.59166 z"
       id="path2234" /><path
       style="fill:#a12404;fill-opacity:1;stroke:none;stroke-width:0.264583;stroke-opacity:1"
       d="m 357.71246,147.20744 c 0,0 0.51945,-11.63874 15.0527,-17.48311 0,0 6.83546,-3.045 13.09772,-3.90385 6.26227,-0.85885 9.57611,-5.81656 9.57611,-5.81656 0,0 2.48053,4.50856 -9.03307,18.38689 0,0 -4.66696,4.04771 -4.56906,24.48369 0.0979,20.43599 -1.80796,40.76745 0.96027,57.7064 0,0 16.88865,3.86656 21.22732,11.77765 4.33868,7.9111 14.97043,3.98744 14.97043,3.98744 0,0 1.09463,-5.36818 -4.3442,-5.68842 0,0 7.27341,-4.59903 13.08051,5.80978 0,0 -0.40656,4.46922 -2.01797,6.93177 -1.61141,2.46254 5.23068,2.82414 5.23068,2.82414 0,0 -4.79185,8.51155 -21.39224,5.16997 0,0 -6.12358,-2.13968 -11.57247,-8.41027 -5.44889,-6.27059 -15.00522,-14.56195 -31.21852,-7.89329 0,0 -5.17071,6.5374 -6.02029,9.43116 0,0 -0.17792,-8.79533 -3.85934,-10.81681 0,0 11.81229,-12.2645 11.22575,-54.12329 -0.58654,-41.8588 0.50728,-34.77254 -10.39433,-32.37329 z"
       id="path2236" /><path
       style="fill:#a12404;fill-opacity:1;stroke:none;stroke-width:0.264583;stroke-opacity:1"
       d="m 398.24183,137.90217 c 0,0 6.10735,-13.83736 20.75852,-8.46637 0,0 4.50027,1.63733 5.78145,4.97382 1.28118,3.3365 -2.06805,0.48887 -4.89348,0.98804 -2.82542,0.49917 -4.96638,7.70766 -4.85893,19.23595 0.10745,11.5283 -4.58498,64.07326 5.82746,54.57511 0,0 2.6454,8.85542 -15.71569,7.50864 0,0 -8.41036,-1.13604 -7.09082,-8.69214 0,0 3.95203,3.05506 4.15826,-4.00548 0.20622,-7.06055 1.60516,-31.10504 1.60516,-31.10504 0,0 2.09892,-36.4796 -1.02552,-35.88728 0,0 -1.71789,-1.24955 -4.54641,0.87475 z"
       id="path2238" /><path
       id="path2240"
       style="fill:#a12404;fill-opacity:1;stroke:none;stroke-width:0.264583;stroke-opacity:1"
       d="m 448.48064,130.83129 c -1.61198,-0.0312 -3.33419,0.16744 -5.16661,0.63614 -19.5458,4.99941 -16.90905,14.1919 -16.90905,14.1919 4.73492,-4.77687 5.24619,-2.33991 5.24619,-2.33991 l 1.48312,24.39851 -3.97496,5.81773 c 3.20445,3.27041 3.92018,11.97343 3.92018,11.97343 2.32286,44.74257 -7.40885,37.92378 -7.40885,37.92378 13.99877,13.73422 49.42197,6.29372 50.08996,-18.92391 0.66799,-25.21761 -20.78064,-32.65692 -20.78064,-32.65692 0,0 3.87297,-2.66761 9.37824,-11.18484 4.98912,-7.71875 -0.29517,-29.5343 -15.87758,-29.83591 z m -0.49403,8.75812 c 4.07277,-0.0581 11.20708,1.27382 10.45466,11.47734 -1.04685,14.19619 -13.26948,17.34364 -13.26948,17.34364 l 0.0961,-28.5626 c 0,0 1.12501,-0.23562 2.7187,-0.25838 z m -3.46801,36.58795 c 20.97815,3.4374 22.43966,34.19011 12.30933,43.11675 -10.13033,8.92663 -12.82041,-2.96313 -12.82041,-2.96313 z" /><path
       style="fill:#a12404;fill-opacity:1;stroke:none;stroke-width:0.264583;stroke-opacity:1"
       d="m 648.57957,131.19369 c 0,0 -0.85505,-6.66405 -10.95801,-3.29818 -10.10295,3.36586 -8.50849,1.28864 -8.50849,1.28864 0,0 0.3412,3.08008 3.07527,4.82846 2.73408,1.74838 -11.00656,23.47958 -11.00656,23.47958 l -7.49199,-14.66038 c 0,0 -1.33501,-3.97365 2.57614,-6.1536 3.91115,-2.17995 3.16587,-3.9246 3.16587,-3.9246 0,0 -3.53517,2.16435 -9.04782,1.84231 -5.51267,-0.32203 -5.51267,-0.32203 -5.51267,-0.32203 l -6.76895,3.26839 c 0,0 5.97385,1.8129 9.17105,10.37444 3.19719,8.56153 8.4248,17.91625 8.4248,17.91625 0,0 6.21613,46.62868 1.84291,62.13405 -4.3732,15.50538 -9.02253,14.37145 -5.25259,25.08778 0,0 4.89242,-13.98592 19.13023,-14.93706 14.2378,-0.95114 12.03552,-11.77705 12.03552,-11.77705 0,0 -5.83373,5.86004 -7.77775,-2.31855 -1.94402,-8.17859 -7.44613,-58.46332 -7.44613,-58.46332 l 15.98185,-33.19028 c 0,0 1.53071,-3.03152 4.36732,-1.17485 z"
       id="path2247" /><path
       id="path2249"
       style="fill:#a12404;fill-opacity:1;stroke:none;stroke-width:0.264583;stroke-opacity:1"
       d="m 497.14795,132.61516 c -19.91452,-0.18123 -23.76444,10.2092 -23.76444,10.2092 l 5.45341,-1.08417 c 5.96223,-1.28524 4.12223,19.06188 4.12223,19.06188 -0.31067,7.0148 -4.66225,9.4573 -4.66225,9.4573 4.86581,0.81793 3.6897,7.14272 3.6897,7.14272 0.0321,12.64297 -8.87439,57.75875 -8.87439,57.75875 6.57229,-3.55387 7.60677,-0.51625 7.60677,-0.51625 9.29386,11.8487 14.17423,14.29737 18.77301,13.93714 4.59879,-0.36022 -0.25425,-3.30885 -0.25425,-3.30885 -8.08934,-9.55697 -8.68732,-25.09976 -8.68732,-25.09976 l 3.3693,-46.77233 c 15.02405,1.59139 7.94593,36.67421 8.1132,53.64013 0.16727,16.96594 15.03474,21.28087 15.03474,21.28087 0,-1.86893 4.20812,-1.7665 9.11108,-3.72587 4.90295,-1.95937 4.47988,-5.3614 3.32744,-9.58804 -1.15244,-4.22665 5.57124,-5.6162 5.57124,-5.6162 -5.3958,-5.49354 -10.91775,1.66016 -14.48336,1.82625 -3.56561,0.16609 -10.08867,-2.15398 -8.3907,-30.46119 1.69797,-28.30721 -7.38456,-30.43174 -7.38456,-30.43174 0,0 12.78553,1.10544 21.19405,-14.55156 8.40854,-15.65701 -10.30221,-20.61166 -10.30221,-20.61166 -7.36607,-1.76714 -13.48644,-2.50042 -18.56269,-2.54662 z m 4.12585,6.69468 c 6.71265,0.0588 13.80078,3.15264 12.76149,12.13415 -1.4152,12.23014 -20.24011,14.39808 -20.24011,14.39808 l 0.74414,-25.53952 c 1.92744,-0.63789 4.3065,-1.01397 6.73448,-0.99271 z" /><path
       id="path2254"
       style="fill:#a12404;fill-opacity:1;stroke:none;stroke-width:0.264583;stroke-opacity:1"
       d="m 543.1901,135.52713 c -2.86071,-0.0496 -7.01481,1.71669 -7.28896,6.34121 -0.33742,5.69172 6.64662,1.63608 6.64662,1.63608 l -11.85819,30.27929 c -3.63798,-1.57189 -9.41906,0.24959 -9.41906,0.24959 -11.8207,5.46595 -2.95538,11.40499 -2.95538,11.40499 -2.1569,-8.72594 9.5157,-5.54229 9.5157,-5.54229 0,0 0.1772,-0.41477 -4.91184,11.51299 -5.08905,11.92776 -6.15673,7.92923 -6.15673,7.92923 -7.55302,15.31469 9.07024,16.96692 9.07024,16.96692 -4.5998,-3.86343 -2.17402,-8.13335 -2.17402,-8.13335 l 10.40091,-27.53682 10.13168,3.89485 c 0.17496,39.3724 8.36125,48.12678 8.36125,48.12678 -1.67784,-0.42259 -2.97605,0.69556 -2.97605,0.69556 0,0 -1.5929,5.97698 13.24467,4.80591 14.83757,-1.17108 14.09183,-11.03624 13.58884,-13.90199 -0.50299,-2.86576 -4.3952,-5.16455 -3.82406,-1.82263 0.57114,3.34191 -5.35045,0.9558 -10.4128,-4.8705 -5.06234,-5.82632 -6.61458,-32.49828 -6.61458,-32.49828 l 4.1801,-0.0692 c 6.98582,-0.84358 7.86991,-5.49411 4.68396,-8.29149 -3.18598,-2.79737 -6.42441,-1.55842 -4.83588,0.75655 1.5885,2.31495 -3.97599,1.46296 -3.97599,1.46296 0,0 2.3082,-1.25099 0.89969,-13.54801 -1.40851,-12.29704 0.57981,-21.71031 0.57981,-21.71031 l 3.42511,-4.7563 -6.83111,1.3131 c 0,0 -6.33662,-3.35889 -8.78396,-4.38319 -0.45887,-0.19206 -1.04981,-0.30016 -1.70997,-0.31161 z m 0.23668,17.10025 0.47232,25.55606 -8.76691,-3.13418 z" /><path
       id="path2259"
       style="fill:#a12404;fill-opacity:1;stroke:none;stroke-width:0.264583;stroke-opacity:1"
       d="m 580.92681,135.95294 c -14.17415,0.0705 -16.23415,10.44226 -16.23415,10.44226 4.49975,-5.414 7.74888,-2.15491 7.74888,-2.15491 0,0 -1.5614,22.83722 -2.89904,23.75204 -1.33764,0.91481 -4.38857,-4.39531 -4.22093,-0.1602 0.16764,4.23512 5.40742,6.51537 5.40742,6.51537 0,0 -4.53814,17.0097 -4.87774,23.48332 -0.24089,4.59213 -2.07019,6.8319 -3.11557,7.74991 1.07009,0.73498 3.18274,2.58358 7.2502,6.67815 10.61586,10.68658 15.66106,7.79694 15.66106,7.79694 -11.23107,-11.12039 -7.71426,-44.47687 -7.71426,-44.47687 3.0984,1.25092 10.44932,8.24701 11.35642,21.82967 0.9071,13.58267 1.98644,25.50129 1.98644,25.50129 5.43795,13.75449 18.64347,18.47553 15.90445,13.73094 -2.739,-4.74457 0.58168,-8.96879 2.13062,-9.62887 1.54894,-0.66009 6.88414,-7.75026 4.10776,-11.68869 -2.77639,-3.93844 -2.3083,0.17395 -2.6479,3.17138 -0.33959,2.99744 -12.45835,4.98892 -10.73681,-15.33136 1.72153,-20.32027 -12.19926,-31.6389 -12.19926,-31.6389 8.02561,-0.16765 14.27309,-9.58286 15.02234,-13.96607 0.74927,-4.3832 3.28482,-18.0152 -16.14113,-21.12687 -2.12471,-0.34034 -4.04811,-0.48719 -5.7888,-0.47853 z m -18.19113,69.62779 c -1.72279,-1.18327 -0.72864,0.53589 -0.72864,0.53589 0,0 0.30032,-0.15976 0.72864,-0.53589 z m 23.94065,-63.4106 c 3.39323,0.0142 7.13755,1.37388 7.13755,7.30705 0,10.84923 -14.42082,15.56598 -14.42082,15.56598 l 1.90117,-21.97282 c 0,0 2.57058,-0.912 5.3821,-0.90021 z" /></g><path
     id="path2314"
     style="fill:#000000;fill-opacity:1;stroke:none;stroke-width:0.264583;stroke-opacity:1"
     d="m 111.6552,36.306311 -0.0331,3.593062 c -0.66253,5.039688 -5.88491,3.337264 -5.88491,3.337264 0,0 -1.80497,1.709932 -2.48306,2.350245 -0.67809,0.640312 -1.05265,-1.486731 -1.05265,-1.486731 -0.0632,2.330823 -3.14399,4.936132 -3.14399,4.936132 l 0.02739,-3.165698 c 0,0 -0.240089,1.89306 -2.062923,3.374988 -1.822834,1.481928 -1.451394,4.077986 -2.096513,4.527372 -0.645119,0.449387 -2.195732,2.775025 -2.195732,2.775025 l -0.551387,-2.484087 c -2.045214,2.562316 -2.320789,7.939051 -2.320789,7.939051 0,0 -6.460601,-2.270132 -5.78466,-0.759127 0.675942,1.511004 -6.40497,3.567025 -9.796301,5.293217 -3.39133,1.726192 -5.473568,5.869926 -5.473568,5.869926 L 64.36917,69.979191 c 0,0 -3.972841,0.606636 -9.634554,-0.422713 -5.661713,-1.029349 -6.798035,-0.209806 -6.798035,-0.209806 -0.87456,1.263418 -2.685108,0.606164 -2.685108,0.606164 -2.970716,2.0262 -4.78162,0.37052 -4.78162,0.37052 -2.164213,3.104779 -6.617167,1.769401 -6.617167,1.769401 -0.222435,1.353005 -3.089217,1.088306 -3.089217,1.088306 C 28.89024,71.341755 27.51925,72.964539 27.51925,72.964539 23.936325,70.422896 20.564636,70.631348 20.564636,70.631348 l 4.489649,2.894397 c -3.252255,-0.479493 -5.207434,1.215429 -5.207434,1.215429 7.337931,0.589507 7.056933,2.571936 7.056933,2.571936 -8.902935,-0.853946 -2.024682,1.1436 -2.024682,1.1436 2.671677,-0.339012 6.550504,4.833813 6.550504,4.833813 l -1.88619,0.359151 4.264856,2.195732 -1.353405,0.428398 c 1.060064,0.181669 3.798217,1.230932 3.798217,1.230932 -1.162667,0.0454 -0.506429,3.130559 -0.506429,3.130559 1.698903,-4.025189 4.335136,-1.008208 4.335136,-1.008208 1.745678,-1.125222 9.297107,2.533696 9.297107,2.533696 l -2.213301,0.361735 4.733044,1.508952 -1.287777,1.416967 c 2.260155,-1.109354 6.104537,1.105359 6.104537,1.105359 l -2.810164,0.58136 c 2.064201,1.223718 6.114872,0.652157 6.114872,0.652157 -0.73346,4.039587 -6.479191,5.477697 -6.479191,5.477697 3.606041,3.35006 7.929545,-2.16844 7.627958,-0.41392 -0.301587,1.75451 -2.881478,2.36161 -2.881478,2.36161 l 2.129586,0.7736 -5.629114,3.31142 c 3.459446,0.71369 9.319328,-1.65003 9.319328,-1.65003 l -3.10472,4.64365 c 0,0 5.500702,-3.82738 6.973218,-3.13159 1.472515,0.69579 -2.615861,4.1832 -2.615861,4.1832 0,0 4.196265,-2.26839 4.632275,-1.33273 0.436011,0.93566 -5.30872,3.28145 -5.30872,3.28145 l 4.904094,-0.40773 c -2.649729,5.08274 -10.602971,3.85403 -10.602971,3.85403 l 6.304008,1.61747 c -1.061241,1.02337 -10.14305,1.26039 -10.14305,1.26039 0.75595,0.42196 8.30802,1.11001 8.30802,1.11001 l -2.561084,0.6873 c 2.161307,1.23908 7.155285,0.43921 3.707784,1.98541 -3.447499,1.5462 -9.346199,-0.1447 -9.346199,-0.1447 0.203385,1.62826 3.855578,4.11603 3.855578,4.11603 l -7.578348,0.30386 c 0,0 7.501089,0.42269 6.983553,1.14877 -0.517537,0.72606 -5.700944,2.15129 -5.700944,2.15129 l -3.061312,1.87585 5.264278,-0.94568 c -0.752066,1.31765 -7.560893,3.64374 -6.566008,3.74344 0.994885,0.0997 5.570588,0.61031 2.941423,1.50637 -2.629166,0.89605 -5.359363,2.41226 -5.359363,2.41226 0,0 5.916962,-1.64529 4.538741,-0.24185 -1.37822,1.40343 -6.745841,2.913 -6.745841,2.913 0,0 7.21449,0.45571 4.355806,1.23352 -2.444728,0.66517 -6.059954,5.33565 -7.106543,6.73964 1.940692,-2.22781 5.67769,-2.35438 5.67769,-2.35438 0,0 -3.606553,3.14863 -3.527433,4.96972 0.07911,1.8211 -2.246892,4.8426 -2.246892,4.8426 l 2.488737,-0.41858 -2.907316,2.68821 2.039152,0.0589 -1.875854,2.65203 1.428336,-0.16536 -2.060339,2.84737 c 0,0 2.269828,-0.84063 2.94814,-1.38699 0.678313,-0.54635 2.288752,0.21044 1.465544,2.60397 -0.823208,2.39354 -4.993494,1.75183 -4.993494,1.75183 l 1.475879,1.16169 c 2.272102,1.82508 3.366083,-0.81766 4.2323,0.40204 0.866217,1.2197 -1.974556,2.00763 -1.974556,2.00763 l 2.174544,1.35547 c -0.768276,0.73391 -2.591573,0.70435 -2.591573,0.70435 1.028832,1.19064 2.450496,1.32705 2.450496,1.32705 l 0.220659,1.50482 -4.866887,1.80041 2.23914,1.5689 -2.230355,1.29862 1.705839,1.02526 c 0,0 -1.932817,-0.37839 -1.189075,0.56948 0.743742,0.94786 0.62945,2.17667 -2.071708,3.84266 -2.701157,1.666 -2.315621,-3.77703 -2.315621,-3.77703 l -1.457792,3.43338 -2.994649,-6.86315 0.168982,4.9289 c -2.783885,-2.93546 -0.150378,-9.13381 -0.150378,-9.13381 -2.063403,0.84684 -3.165182,6.70502 -3.165182,6.70502 0,0 -2.338626,-3.52203 -1.739945,-6.07353 0.598681,-2.55151 -0.36897,-3.69487 -0.36897,-3.69487 0,0 -1.567551,6.68167 -1.986442,3.39256 -0.418893,-3.28911 3.735172,-7.16494 3.735172,-7.16494 0,0 -3.747878,2.58544 -3.303674,-0.031 0.444204,-2.61646 7.785571,-1.87276 7.785571,-1.87276 -2.459225,-2.5713 -8.323006,-1.14256 -8.323006,-1.14256 -0.117478,-3.33118 7.539075,-5.69164 7.539075,-5.69164 l -5.06119,-0.0574 c 0,0 0.255239,-1.20219 2.263945,-2.82153 2.008705,-1.61934 7.948352,-2.21433 7.948352,-2.21433 0,0 -4.267192,-0.41653 -5.044137,-1.20923 -0.776945,-0.79271 1.492415,-2.7466 1.492415,-2.7466 0.775349,-1.62879 7.279143,-6.19136 7.279143,-6.19136 l -2.633431,0.093 c 0.495526,-2.08211 4.194576,-3.55689 4.194576,-3.55689 -2.606193,-1.43551 -7.08794,3.18792 -7.08794,3.18792 0.05927,-0.59913 3.812171,-4.62091 3.812171,-4.62091 l -1.663982,0.89762 1.42472,-2.26187 2.211751,-0.82528 -1.078487,-0.0253 c 0,0 3.205026,-1.93568 3.191536,-6.07715 -0.01349,-4.14147 2.178679,-6.26887 2.178679,-6.26887 -2.834999,-1.73605 -4.048559,6.85172 -4.212146,7.62848 -0.163586,0.77676 -2.968297,2.56879 -1.86707,-0.32815 1.101228,-2.89693 0.941028,-5.81773 0.941028,-5.81773 -0.720995,-1.15014 -0.455269,-4.16047 -0.455269,-4.16047 -0.797106,0.0746 -1.819527,-1.88929 -1.819527,-1.88929 -3.724304,-1.95267 -4.968689,-6.79597 -4.968689,-6.79597 -1.158904,2.87739 2.343009,7.53701 2.343009,7.53701 0,0 -3.886126,-3.85347 -3.680912,-4.95318 0.205214,-1.09973 -0.450619,-3.56413 -0.450619,-3.56413 l -1.459859,1.31207 -0.749308,-3.63751 -1.532206,3.36414 -0.687814,-2.86546 -0.483174,2.40761 -1.019576,-0.51987 c -2.806709,-1.7796 -4.369243,-8.37468 -4.369243,-8.37468 -1.690399,3.13734 0.196887,6.64042 0.196887,6.64042 -4.011761,-1.71121 -7.885459,-1.20843 -9.782865,-0.88263 -1.8974053,0.32579 -5.1485229,-0.98754 -5.1485229,-0.98754 0,0 0.2275053,0.95317 1.8164266,1.68568 1.5889213,0.73253 4.1693333,1.10557 3.8721153,2.10013 -0.297219,0.99458 -8.0682416,3.79564 -8.0682416,3.79564 l 5.249292,-1.25936 c 0,0 -0.3807424,1.04087 -2.4809856,2.41071 -2.1002433,1.36984 -4.0927734,7.90494 -4.0927734,7.90494 0,0 4.3873042,-7.05021 4.9826416,-2.9502 0.5953373,4.09999 -0.9834025,8.69249 -0.9834025,8.69249 3.4521465,-1.74437 3.9400125,-6.71986 4.0338625,-8.93486 0.09385,-2.21499 1.548742,-4.33617 1.548742,-4.33617 0.808659,0.85671 0.980302,6.96805 0.980302,6.96805 0.61072,-0.40241 1.028929,-2.91562 0.880567,-5.46633 -0.148362,-2.5507 5.339842,-5.8571 3.173966,-2.01331 -2.165877,3.84378 0.63252,4.86068 0.63252,4.86068 0,0 -2.340554,-1.69948 1.240751,-3.50986 3.581305,-1.81039 4.390946,2.95331 4.390946,2.95331 -6.295738,0.14752 -5.48766,3.86479 -5.114416,4.95887 -0.03538,-0.42712 0.358264,-1.24791 3.253548,-2.24948 4.243316,-1.46788 3.416329,4.8333 3.416329,4.8333 l -4.172355,-1.94355 c 1.505261,1.91433 4.871537,3.94756 4.871537,3.94756 l -0.695048,3.7946 c -2.053975,-0.55751 -1.693437,-2.29081 -1.693437,-2.29081 -0.51989,0.36596 -0.564306,1.50946 -0.564306,1.50946 1.890866,3.23956 -0.05013,6.76703 -0.05013,6.76703 -2.464033,-5.8034 -4.812626,-2.98793 -4.812626,-2.98793 3.351805,-0.32864 3.381705,4.32532 3.381705,4.32532 l -3.145544,5.09581 c 0.380415,-3.22256 -0.465088,-5.07566 -0.465088,-5.07566 0,0 -1.143514,6.86407 -1.203544,5.24051 -0.06003,-1.62357 -1.037146,-4.91443 -1.037146,-4.91443 0,0 0.181694,6.00393 -0.850594,7.55355 -1.032287,1.54962 -1.16427,-2.20349 -1.16427,-2.20349 0,0 -2.698631,10.76411 -2.043803,4.91701 0.654827,-5.84709 -1.8763714,-5.518 -1.8763714,-5.518 1.3775164,0.12006 0.9799924,4.79463 0.3927404,5.36039 -0.58725,0.56577 -2.0587886,4.94802 -2.0587886,4.94802 -1.0229534,-2.0463 -5.6273709,-3.2364 -3.7114014,-2.27428 1.9159696,0.96212 3.3574326,3.80431 2.7073283,5.25653 -0.6501043,1.45222 0.2547461,10.9331 -0.7772135,9.95443 -1.0319598,-0.97868 -1.2676229,-4.07366 -1.2676229,-4.07366 0,0 -1.5140185,4.29373 -1.4546916,5.7118 0.059327,1.41806 7.9798747,14.65285 7.9798747,14.65285 -1.135258,-0.80301 -4.1351481,-4.42557 -4.1351481,-4.42557 0.8978948,5.95309 5.6462961,6.71897 3.9878701,7.7339 -1.6584253,1.01493 -2.3822832,5.85999 -1.387512,3.8871 0.994771,-1.97289 2.598291,-2.35231 2.598291,-2.35231 l 5.338175,4.44727 -3.720186,-0.25528 c 2.052298,2.11661 6.576343,2.68407 6.576343,2.68407 -5.153649,-0.15724 -5.039486,4.8917 -5.039486,4.8917 5.879853,-7.2614 13.324251,-0.10181 13.324251,-0.10181 -2.756492,-0.66911 -6.875032,-0.71985 -6.875032,-0.71985 0,0 -0.06636,0.12719 4.584216,2.19677 4.65058,2.06957 13.763501,-1.27383 13.763501,-1.27383 0.0067,0.97302 -3.719153,4.3279 -3.719153,4.3279 2.744505,0.30282 6.509681,-4.00285 6.509681,-4.00285 0,0 4.009312,-3.28663 4.189408,-1.55598 0.180097,1.73066 2.115633,3.03961 2.115633,3.03961 0,0 -0.08991,-1.99041 2.224154,-4.9041 2.31406,-2.91369 2.807063,3.31401 2.807063,3.31401 1.698722,-1.78661 1.626258,0.67025 1.626258,0.67025 0,0 -3.837295,3.77029 -1.25367,2.76417 2.583628,-1.00612 2.641699,2.33836 2.641699,2.33836 l -1.637626,1.29914 1.718241,1.55185 -2.98328,1.31516 2.881477,0.7984 c 0.07084,0.41299 -3.375504,2.28152 -3.375504,2.28152 0.790806,0.11541 2.267562,-0.82011 2.267562,-0.82011 0,0 0.930125,1.10788 -0.603064,1.73633 -1.533189,0.62846 -2.178162,2.25981 -2.178162,2.25981 2.681657,-1.4877 -0.05219,2.57039 -0.05219,2.57039 -1.318761,6.09357 3.358968,7.41246 3.358968,7.41246 0,0 12.018489,2.71803 12.775448,4.67982 0.756958,1.96178 2.343781,1.92938 2.425691,0.93379 0.08191,-0.99558 1.626654,-1.53597 5.589323,-0.10438 3.96267,1.4316 8.807215,-0.28061 8.807215,-0.28061 12.410219,8.93093 15.690518,8.19899 15.690518,8.19899 -0.93488,-0.64482 -1.61902,-2.15439 -1.61902,-2.15439 0,0 2.42178,2.515 4.0907,0.74827 1.66892,-1.76672 3.99407,-1.18287 3.99407,-1.18287 8.44064,0.87947 8.96483,9.84384 8.96483,9.84384 1.42502,-9.15665 -2.61098,-9.93732 -5.84099,-11.82305 -3.23,-1.88572 -1.603,-3.11092 -1.603,-3.11092 5.93318,-2.36723 9.90999,4.45554 9.90999,4.45554 -1.48821,-8.51799 -9.84126,-7.8574 -9.84126,-7.8574 l -0.62477,-1.86965 c 6.351,-1.89135 9.57513,2.03605 9.57513,2.03605 -2.49746,-5.7662 -5.74487,-5.53972 -5.74487,-5.53972 0,0 -5.64806,0.21259 -5.98878,-0.30902 -0.34072,-0.5216 0.60978,-1.27279 0.60978,-1.27279 0,0 -2.10876,0.13507 -2.95021,-0.18862 -0.84145,-0.32368 0.36897,-1.28003 0.36897,-1.28003 0,0 -0.31587,-1.09749 -2.88199,0.27182 -2.56613,1.36931 -5.429647,-0.12971 -5.429647,-0.12971 0,0 -0.968457,-0.77814 -2.332674,-0.37517 -1.364216,0.403 -5.097363,0.33693 -5.097363,0.33693 l 4.778519,-1.62522 c 0,0 -7.776068,1.80846 -8.96121,0.8971 -1.185142,-0.91135 -6.186702,-1.77663 -6.186702,-1.77663 2.49057,-1.97194 14.869893,-4.33979 14.869893,-4.33979 -0.06003,0.87041 -2.083077,2.1761 -2.083077,2.1761 3.455551,-0.55985 6.360852,-3.56878 6.360852,-3.56878 l 1.469679,0.25012 c 0,0 2.04469,-2.68195 4.12016,-3.70676 2.07552,-1.0248 -0.0186,1.42834 -0.0186,1.42834 3.5068,0.47782 4.03058,-8.25193 4.15065,-6.30762 0.12006,1.94431 1.11259,4.22351 1.11259,4.22351 0,0 0.57991,-4.45308 1.28933,-5.12992 0.70942,-0.67684 0.86506,2.88871 0.86506,2.88871 0,0 0.2682,-3.98865 0.2682,-3.13779 0,0.85085 0.91209,1.02009 0.91209,1.02009 0.0599,-2.27321 1.37925,-3.94239 1.37925,-3.94239 l 0.26303,1.6583 0.96945,-1.20975 0.45217,0.91984 c 0,0 1.25508,-8.40057 1.21078,-4.91029 -0.0443,3.49027 3.20045,7.46385 1.89704,5.03225 -1.30342,-2.43162 -0.66608,-11.75687 -0.59738,-8.07083 0.0687,3.68605 2.53783,7.77265 2.53783,7.77265 0,0 -3.04164,-6.99457 -0.80822,-10.37507 2.23343,-3.38051 1.95389,-5.68906 1.95389,-5.68906 0,0 -3.05363,-2.78794 -3.7791,-6.2389 -0.72548,-3.45095 2.55591,1.78956 2.55591,1.78956 -1.79141,-6.36249 -6.76983,-9.18661 -4.60902,-7.7618 2.16082,1.42481 3.86282,1.09657 3.86282,1.09657 0,0 -1.77121,-0.1999 -3.46749,-2.32906 -1.69628,-2.12916 -8.5041,-4.06136 -9.12348,-4.58059 -0.61936,-0.51924 0.20568,-1.04852 0.20568,-1.04852 l 2.48408,-3.64681 c 2.00165,4.79768 4.70049,2.01487 4.70049,2.01487 0,0 -3.70874,0.38088 -2.73833,-2.57607 0.97042,-2.95695 2.52904,-3.18844 2.52904,-3.18844 0,0 -0.3082,-2.41238 0.15968,-3.04271 0.46787,-0.63033 1.61489,1.54203 1.61489,1.54203 -0.52279,-2.63945 -0.0263,-4.75352 0.62063,-5.9154 0.64691,-1.16188 1.69189,-0.93483 1.69189,-0.93483 0,0 -0.71975,-5.76532 0.42478,-5.33714 1.14453,0.42823 3.86281,0.46147 3.86281,0.46147 0,0 -1.95448,-2.52688 0.11783,-1.8309 2.0723,0.69601 4.11189,0.0341 4.11189,0.0341 0,0 -1.01594,-1.11252 -0.70435,-2.06757 0.3116,-0.95505 3.21878,-0.69332 2.25826,-1.17358 -0.96052,-0.48025 -0.72006,-0.3595 4.86895,-0.0853 5.58902,0.27424 6.46524,6.35568 6.46524,6.35568 -1.20628,4.57828 -10.42882,6.21203 -10.42882,6.21203 2.76953,1.27404 8.57893,0.12939 10.84688,-1.37718 2.26795,-1.50657 4.06901,-2.04535 4.06901,-2.04535 0.93838,2.86705 -7.46053,6.70501 -7.46053,6.70501 7.01212,-0.0945 11.0296,-4.54874 13.33459,-6.0327 2.30498,-1.48396 -0.33745,6.7262 -0.33745,6.7262 2.89656,-2.16481 3.95893,-4.6762 3.95893,-4.6762 1.14139,-7.16413 0.11111,-18.11982 0.11111,-18.11982 l 0.73587,0.0703 c 0,0 -4.25643,-3.73936 -2.66702,-3.21376 1.58942,0.52561 1.82934,-1.58957 1.82934,-1.58957 0,0 -0.44043,2.06886 -2.29495,-0.22686 -1.85453,-2.29571 -5.62349,-2.69582 -6.21874,-3.2892 -0.59526,-0.59338 -0.24443,-1.59835 -0.24443,-1.59835 0,0 -1.20113,1.16024 -2.6293,0.53743 -1.42816,-0.6228 -4.84156,-0.37672 -4.84156,-0.37672 l 0.0703,-0.87747 c 0,0 -2.14121,2.33366 -4.51239,2.23966 -2.37116,-0.0941 -2.68665,-1.52807 -2.68665,-1.52807 0,0 -0.46745,3.04576 -3.86954,3.12746 -3.40208,0.0817 -7.47292,2.7745 -7.47292,2.7745 -2.96623,0.12905 -0.091,-1.63142 -0.091,-1.63142 3.84706,0.0479 6.64713,-2.74557 6.64713,-2.74557 0,0 -2.27167,1.02381 -2.81481,-0.61185 -0.54314,-1.63566 1.88671,-1.1715 1.88671,-1.1715 l -2.05414,-2.45412 c 1.88561,0.71478 4.47104,-1.45159 4.47104,-1.45159 0,0 -3.43689,1.41367 -4.67671,-1.18081 -1.23984,-2.59447 1.49396,-2.82049 1.49396,-2.82049 2.41623,0.95659 7.3887,0.55603 7.3887,0.55603 l -2.59364,-0.41031 c 3.84125,-0.21281 5.74487,-2.58744 5.74487,-2.58744 -3.30643,-0.12392 2.38486,-3.68194 2.38486,-3.68194 0,0 -2.5126,-0.47576 0.0129,-1.77044 2.52554,-1.29467 2.09342,-3.72742 2.09342,-3.72742 0.8742,-0.75076 1.38854,-2.14405 1.38854,-2.14405 l -2.31614,0.95394 c 1.27759,-1.43926 3.01532,-4.60385 3.01532,-4.60385 -1.58709,1.84602 -2.36058,1.44642 -2.36058,1.44642 -1.08574,-1.08575 1.44281,-3.14296 1.44281,-3.14296 -2.18155,-1.42434 -0.63045,-2.37453 -0.63045,-2.37453 1.13157,-0.51783 2.53938,-3.651972 2.53938,-3.651972 l -2.96055,1.329118 3.5264,-6.27817 -3.05821,1.92288 -0.008,-2.233972 5.62085,-2.749186 c -4.10162,-0.196776 -4.34134,-1.973523 -4.34134,-1.973523 0,0 5.09956,-3.737348 4.03645,-3.202389 -1.06312,0.534957 -1.92391,-0.01188 -1.92391,-0.01188 0.49096,-4.651696 5.41362,-4.864303 5.41362,-4.864303 -3.90012,-0.664121 0.98876,-4.278428 2.83238,-4.78007 1.84363,-0.501641 1.60869,1.390613 1.60869,1.390613 1.56719,0.262304 3.47405,2.062877 5.04982,4.307747 1.57578,2.24487 3.30833,3.279903 3.30833,3.279903 1.30522,4.142946 -5.81257,7.061585 -5.81257,7.061585 3.72187,1.30332 9.72086,-3.360519 9.72086,-3.360519 -0.30632,5.255173 -6.8523,10.360608 -6.8523,10.360608 7.78202,-0.838612 11.01173,-9.13846 11.01173,-9.13846 0.79373,2.522406 -3.04012,9.602515 -3.04012,9.602515 7.88749,-5.452205 8.35401,-16.421737 8.35401,-16.421737 l 1.26039,1.682068 -0.71572,-4.511869 3.07733,3.177067 c 0,0 -1.11337,-2.363162 -2.25464,-4.145484 -1.14128,-1.782322 1.26142,-1.815393 1.26142,-1.815393 -0.0882,-1.176484 -1.12448,-2.607592 -1.12448,-2.607592 -1.8626,-0.960993 -1.69447,-4.496884 -1.69447,-4.496884 l -3.17345,-2.556433 c -0.4857,-2.520946 -2.93315,-3.096452 -2.93315,-3.096452 -3.27226,-0.487486 -1.61696,-2.077909 -1.61696,-2.077909 -3.38185,-0.551377 -11.7383,-4.512386 -11.7383,-4.512386 1.93824,-0.540289 8.19226,1.437638 8.19226,1.437638 l -4.85965,-1.74563 c -3.67177,-1.318719 -5.47474,-0.45319 -6.13864,0.04961 1.17097,-1.20366 0.0698,-1.997811 0.0698,-1.997811 -0.93229,2.23176 -3.75687,1.978174 -3.75687,1.978174 -6.21691,-2.212589 -8.97362,3.611149 -8.97362,3.611149 -0.62496,-0.887831 -1.80661,-1.350822 -1.80661,-1.350822 0,1.248835 -1.02681,2.308903 -1.02681,2.308903 -4.26856,2.130789 -4.74648,4.770251 -4.74648,4.770251 -1.35164,-2.262547 -1.85415,-0.4439 -1.85415,-0.4439 0.22611,4.579538 -1.09192,3.89692 -1.09192,3.89692 l -0.84749,6.101436 -1.08211,-4.866886 c 0,0 -0.58297,9.654517 -1.08055,12.112955 -0.49758,2.458438 -2.39004,0.225826 -2.39004,0.225826 0.0715,2.959412 -3.01192,2.983578 -2.48408,2.108399 0.52783,-0.87518 2.77037,-4.647262 2.77037,-4.647262 0,0 -7.55223,5.16575 -5.72058,2.829285 1.83165,-2.336465 1.22111,-6.201689 1.22111,-6.201689 0,0 4.30773,-5.72003 1.95027,-3.743957 -2.35746,1.976074 -4.67878,1.28881 -4.67878,1.28881 0,0 3.37888,-5.08575 0.99322,-3.117639 -2.38566,1.968111 -4.25039,1.028878 -4.25039,1.028878 l 2.45877,-2.042253 c 0,0 -2.07406,0.468533 -1.12913,-0.835091 0.94493,-1.303623 1.28054,-3.394625 1.28054,-3.394625 0,0 -1.35889,1.977724 -2.47995,1.005623 -1.12105,-0.972102 0.95704,-3.557922 0.95704,-3.557922 -0.78746,-0.261604 -4.74634,-7.009908 -3.65455,-7.992277 1.0918,-0.982368 1.92804,-3.08715 1.92804,-3.08715 0,0 -1.33919,0.404385 -0.91829,-2.005046 0.42091,-2.40943 3.17811,-2.8236 3.17811,-2.8236 -0.99693,-2.808382 4.13928,-5.727299 4.13928,-5.727299 l -3.47679,0.835608 c 0.92647,-2.329867 0.0134,-4.578532 0.0134,-4.578532 -1.31674,4.069092 -3.32124,3.658691 -3.32124,3.658691 0,-2.118965 -1.29708,-4.9413 -1.29708,-4.9413 z M 18.793685,129.15801 c 0.01647,0.19886 0.117822,0.32039 0.117822,0.32039 0,0 -0.05365,-0.1323 -0.117822,-0.32039 z m 22.281327,23.05234 c -0.162675,0.18674 -0.317028,0.38349 -0.451135,0.60099 0,0 0.273921,-0.36326 0.451135,-0.60099 z M 106.52166,73.863192 c 2.45893,-0.01367 5.18522,1.238167 5.18522,1.238167 0,0 1.18518,4.6897 -1.07436,9.63042 -2.25953,4.940716 -9.43353,4.888074 -9.43353,4.888074 -0.97274,-2.224853 -1.00149,-7.959204 -1.00149,-7.959204 l 6.17482,4.63951 -1.04903,-7.920447 -0.84595,-0.103353 c 0,0 -1.2051,1.128789 -1.92391,-0.180867 -0.71882,-1.309657 0.74104,-1.928048 0.74104,-1.928048 l 0.16433,-1.085722 c 0.72445,-0.903436 1.86199,-1.211853 3.06286,-1.21853 z M 81.571248,85.050623 c 0.443244,0.02084 0.948263,1.034045 0.948263,1.034045 -1.199606,7.069788 2.971395,8.882662 2.971395,8.882662 2.133846,-2.530196 3.401343,-5.105632 3.401343,-5.105632 0,0 -0.311438,-1.837127 -0.96945,-0.903304 -0.658014,0.933824 -1.686346,0.434233 -1.980241,-0.437182 -0.293896,-0.871414 1.192589,-1.321179 1.863452,-0.734322 0.670862,0.586857 1.389062,0.60048 1.389062,0.60048 l 4.189409,4.413167 c -9.62874,7.253243 -19.980693,-0.443384 -19.980693,-0.443384 0.535485,-7.105847 8.16746,-7.30653 8.16746,-7.30653 z" /><path
     id="path2314-3"
     style="fill:#000000;fill-opacity:1;stroke:none;stroke-width:0.264583;stroke-opacity:1"
     d="m 704.53531,36.539445 0.0331,3.593062 c 0.66253,5.039688 5.88491,3.337264 5.88491,3.337264 0,0 1.80497,1.709932 2.48306,2.350245 0.67809,0.640312 1.05265,-1.486731 1.05265,-1.486731 0.0632,2.330823 3.14399,4.936132 3.14399,4.936132 l -0.0274,-3.165698 c 0,0 0.24009,1.89306 2.06292,3.374988 1.82284,1.481928 1.4514,4.077986 2.09652,4.527372 0.64512,0.449387 2.19573,2.775025 2.19573,2.775025 l 0.55139,-2.484087 c 2.04521,2.562316 2.32079,7.939051 2.32079,7.939051 0,0 6.4606,-2.270132 5.78466,-0.759127 -0.67595,1.511004 6.40497,3.567025 9.7963,5.293217 3.39133,1.726192 5.47357,5.869926 5.47357,5.869926 l 4.43384,-2.427759 c 0,0 3.97284,0.606636 9.63455,-0.422713 5.66171,-1.029349 6.79803,-0.209806 6.79803,-0.209806 0.87456,1.263418 2.68511,0.606164 2.68511,0.606164 2.97072,2.0262 4.78162,0.37052 4.78162,0.37052 2.16422,3.104779 6.61717,1.769401 6.61717,1.769401 0.22243,1.353005 3.08922,1.088306 3.08922,1.088306 1.87323,-1.839308 3.24422,-0.216524 3.24422,-0.216524 3.58292,-2.541643 6.95461,-2.333191 6.95461,-2.333191 l -4.48965,2.894397 c 3.25226,-0.479493 5.20743,1.215429 5.20743,1.215429 -7.33793,0.589507 -7.05693,2.571936 -7.05693,2.571936 8.90294,-0.853946 2.02468,1.1436 2.02468,1.1436 -2.67167,-0.339012 -6.5505,4.833813 -6.5505,4.833813 l 1.88619,0.359151 -4.26486,2.195732 1.35341,0.428398 c -1.06007,0.181669 -3.79822,1.230932 -3.79822,1.230932 1.16267,0.0454 0.50643,3.130559 0.50643,3.130559 -1.6989,-4.025189 -4.33514,-1.008208 -4.33514,-1.008208 -1.74567,-1.125222 -9.2971,2.533696 -9.2971,2.533696 l 2.2133,0.361735 -4.73305,1.508952 1.28778,1.416967 c -2.26015,-1.109354 -6.10454,1.105359 -6.10454,1.105359 l 2.81017,0.58136 c -2.0642,1.223718 -6.11487,0.652157 -6.11487,0.652157 0.73346,4.039593 6.47919,5.477703 6.47919,5.477703 -3.60604,3.35006 -7.92955,-2.16844 -7.62796,-0.41392 0.30159,1.75451 2.88148,2.36161 2.88148,2.36161 l -2.12959,0.7736 5.62912,3.31142 c -3.45945,0.71369 -9.31933,-1.65003 -9.31933,-1.65003 l 3.10472,4.64365 c 0,0 -5.5007,-3.82738 -6.97322,-3.13159 -1.47252,0.69579 2.61586,4.1832 2.61586,4.1832 0,0 -4.19626,-2.26839 -4.63227,-1.33273 -0.43602,0.93566 5.30872,3.28145 5.30872,3.28145 l -4.9041,-0.40773 c 2.64973,5.08274 10.60297,3.85403 10.60297,3.85403 l -6.30401,1.61747 c 1.06125,1.02337 10.14305,1.26039 10.14305,1.26039 -0.75595,0.42196 -8.30802,1.11001 -8.30802,1.11001 l 2.56109,0.6873 c -2.16131,1.23908 -7.15529,0.43921 -3.70779,1.98541 3.4475,1.5462 9.3462,-0.1447 9.3462,-0.1447 -0.20338,1.62826 -3.85557,4.11603 -3.85557,4.11603 l 7.57834,0.30386 c 0,0 -7.50109,0.42269 -6.98355,1.14877 0.51754,0.72606 5.70094,2.15129 5.70094,2.15129 l 3.06132,1.87585 -5.26428,-0.94568 c 0.75206,1.31765 7.56089,3.64374 6.56601,3.74344 -0.99489,0.0997 -5.57059,0.61031 -2.94143,1.50637 2.62917,0.89605 5.35937,2.41226 5.35937,2.41226 0,0 -5.91697,-1.64529 -4.53874,-0.24185 1.37822,1.40343 6.74584,2.913 6.74584,2.913 0,0 -7.21449,0.45571 -4.35581,1.23352 2.44473,0.66517 6.05995,5.33565 7.10654,6.73964 -1.94069,-2.22781 -5.67769,-2.35438 -5.67769,-2.35438 0,0 3.60656,3.14863 3.52744,4.96972 -0.0791,1.8211 2.24689,4.8426 2.24689,4.8426 l -2.48874,-0.41858 2.90732,2.68821 -2.03915,0.0589 1.87585,2.65203 -1.42834,-0.16536 2.06034,2.84737 c 0,0 -2.26983,-0.84063 -2.94814,-1.38699 -0.67831,-0.54635 -2.28875,0.21044 -1.46554,2.60397 0.82321,2.39354 4.99349,1.75183 4.99349,1.75183 l -1.47588,1.16169 c -2.2721,1.82508 -3.36608,-0.81766 -4.2323,0.40204 -0.86621,1.2197 1.97456,2.00763 1.97456,2.00763 l -2.17454,1.35547 c 0.76827,0.73391 2.59157,0.70435 2.59157,0.70435 -1.02883,1.19064 -2.4505,1.32705 -2.4505,1.32705 l -0.22066,1.50482 4.86689,1.80041 -2.23914,1.5689 2.23036,1.29862 -1.70584,1.02526 c 0,0 1.93281,-0.37839 1.18907,0.56948 -0.74374,0.94786 -0.62945,2.17667 2.07171,3.84266 2.70116,1.666 2.31562,-3.77703 2.31562,-3.77703 l 1.45779,3.43338 2.99465,-6.86315 -0.16898,4.9289 c 2.78388,-2.93546 0.15038,-9.13381 0.15038,-9.13381 2.0634,0.84684 3.16518,6.70502 3.16518,6.70502 0,0 2.33863,-3.52203 1.73994,-6.07353 -0.59868,-2.55151 0.36897,-3.69487 0.36897,-3.69487 0,0 1.56756,6.68167 1.98645,3.39256 0.41889,-3.28911 -3.73518,-7.16494 -3.73518,-7.16494 0,0 3.74788,2.58544 3.30368,-0.031 -0.44421,-2.61646 -7.78557,-1.87276 -7.78557,-1.87276 2.45922,-2.5713 8.323,-1.14256 8.323,-1.14256 0.11748,-3.33118 -7.53907,-5.69164 -7.53907,-5.69164 l 5.06119,-0.0574 c 0,0 -0.25524,-1.20219 -2.26395,-2.82153 -2.0087,-1.61934 -7.94835,-2.21433 -7.94835,-2.21433 0,0 4.26719,-0.41653 5.04414,-1.20923 0.77694,-0.79271 -1.49242,-2.7466 -1.49242,-2.7466 -0.77535,-1.62879 -7.27914,-6.19136 -7.27914,-6.19136 l 2.63343,0.093 c -0.49552,-2.08211 -4.19457,-3.55689 -4.19457,-3.55689 2.60619,-1.43551 7.08794,3.18792 7.08794,3.18792 -0.0593,-0.59913 -3.81218,-4.62091 -3.81218,-4.62091 l 1.66399,0.89762 -1.42472,-2.26187 -2.21175,-0.82528 1.07848,-0.0253 c 0,0 -3.20502,-1.93568 -3.19153,-6.07715 0.0135,-4.14147 -2.17868,-6.26887 -2.17868,-6.26887 2.835,-1.73605 4.04856,6.85172 4.21214,7.62848 0.16359,0.77676 2.9683,2.56879 1.86707,-0.32815 -1.10122,-2.89693 -0.94102,-5.81773 -0.94102,-5.81773 0.72099,-1.15014 0.45526,-4.16047 0.45526,-4.16047 0.79711,0.0746 1.81953,-1.88929 1.81953,-1.88929 3.72431,-1.95267 4.96869,-6.79597 4.96869,-6.79597 1.1589,2.87739 -2.34301,7.53701 -2.34301,7.53701 0,0 3.88613,-3.85347 3.68091,-4.95318 -0.20521,-1.09973 0.45062,-3.56413 0.45062,-3.56413 l 1.45986,1.31207 0.74931,-3.63751 1.53221,3.36414 0.68781,-2.86546 0.48317,2.40761 1.01958,-0.51987 c 2.80671,-1.7796 4.36924,-8.37468 4.36924,-8.37468 1.6904,3.13734 -0.19688,6.64042 -0.19688,6.64042 4.01176,-1.71121 7.88545,-1.20843 9.78286,-0.88263 1.89741,0.32579 5.14852,-0.98754 5.14852,-0.98754 0,0 -0.2275,0.95317 -1.81642,1.68568 -1.58892,0.73253 -4.16934,1.10557 -3.87212,2.10013 0.29722,0.99458 8.06824,3.79564 8.06824,3.79564 l -5.24929,-1.25936 c 0,0 0.38074,1.04087 2.48099,2.41071 2.10024,1.36984 4.09277,7.90494 4.09277,7.90494 0,0 -4.3873,-7.05021 -4.98264,-2.9502 -0.59534,4.09999 0.9834,8.69249 0.9834,8.69249 -3.45215,-1.74437 -3.94001,-6.71986 -4.03386,-8.93486 -0.0939,-2.21499 -1.54874,-4.33617 -1.54874,-4.33617 -0.80866,0.85671 -0.98031,6.96805 -0.98031,6.96805 -0.61072,-0.40241 -1.02892,-2.91562 -0.88056,-5.46633 0.14836,-2.5507 -5.33984,-5.8571 -3.17397,-2.01331 2.16588,3.84378 -0.63252,4.86068 -0.63252,4.86068 0,0 2.34056,-1.69948 -1.24075,-3.50986 -3.5813,-1.81039 -4.39095,2.95331 -4.39095,2.95331 6.29574,0.14752 5.48766,3.86479 5.11442,4.95887 0.0354,-0.42712 -0.35826,-1.24791 -3.25355,-2.24948 -4.24331,-1.46788 -3.41633,4.8333 -3.41633,4.8333 l 4.17236,-1.94355 c -1.50526,1.91433 -4.87154,3.94756 -4.87154,3.94756 l 0.69505,3.7946 c 2.05397,-0.55751 1.69344,-2.29081 1.69344,-2.29081 0.51989,0.36596 0.5643,1.50946 0.5643,1.50946 -1.89086,3.23956 0.0501,6.76703 0.0501,6.76703 2.46404,-5.8034 4.81263,-2.98793 4.81263,-2.98793 -3.35181,-0.32864 -3.38171,4.32532 -3.38171,4.32532 l 3.14555,5.09581 c -0.38042,-3.22256 0.46509,-5.07566 0.46509,-5.07566 0,0 1.14351,6.86407 1.20354,5.24051 0.06,-1.62357 1.03715,-4.91443 1.03715,-4.91443 0,0 -0.1817,6.00393 0.85059,7.55355 1.03229,1.54962 1.16427,-2.20349 1.16427,-2.20349 0,0 2.69863,10.76411 2.0438,4.91701 -0.65482,-5.84709 1.87637,-5.518 1.87637,-5.518 -1.37751,0.12006 -0.97999,4.79463 -0.39274,5.36039 0.58725,0.56577 2.05879,4.94802 2.05879,4.94802 1.02296,-2.0463 5.62737,-3.2364 3.7114,-2.27428 -1.91597,0.96212 -3.35743,3.80431 -2.70732,5.25653 0.6501,1.45222 -0.25475,10.9331 0.77721,9.95443 1.03196,-0.97868 1.26762,-4.07366 1.26762,-4.07366 0,0 1.51402,4.29373 1.45469,5.7118 -0.0593,1.41806 -7.97987,14.65285 -7.97987,14.65285 1.13526,-0.80301 4.13515,-4.42557 4.13515,-4.42557 -0.8979,5.95309 -5.6463,6.71897 -3.98787,7.7339 1.65842,1.01493 2.38228,5.85999 1.38751,3.8871 -0.99477,-1.97289 -2.59829,-2.35231 -2.59829,-2.35231 l -5.33818,4.44727 3.72019,-0.25528 c -2.0523,2.11661 -6.57634,2.68407 -6.57634,2.68407 5.15364,-0.15724 5.03948,4.8917 5.03948,4.8917 -5.87985,-7.2614 -13.32425,-0.10181 -13.32425,-0.10181 2.75649,-0.66911 6.87503,-0.71985 6.87503,-0.71985 0,0 0.0664,0.12719 -4.58421,2.19677 -4.65058,2.06957 -13.7635,-1.27383 -13.7635,-1.27383 -0.007,0.97302 3.71915,4.3279 3.71915,4.3279 -2.74451,0.30282 -6.50968,-4.00285 -6.50968,-4.00285 0,0 -4.00931,-3.28663 -4.18941,-1.55598 -0.1801,1.73066 -2.11563,3.03961 -2.11563,3.03961 0,0 0.0899,-1.99041 -2.22416,-4.9041 -2.31406,-2.91369 -2.80706,3.31401 -2.80706,3.31401 -1.69872,-1.78661 -1.62626,0.67025 -1.62626,0.67025 0,0 3.8373,3.77029 1.25367,2.76417 -2.58363,-1.00612 -2.6417,2.33836 -2.6417,2.33836 l 1.63763,1.29914 -1.71824,1.55185 2.98328,1.31516 -2.88148,0.7984 c -0.0708,0.41299 3.3755,2.28152 3.3755,2.28152 -0.7908,0.11541 -2.26756,-0.82011 -2.26756,-0.82011 0,0 -0.93012,1.10788 0.60307,1.73633 1.53319,0.62846 2.17816,2.25981 2.17816,2.25981 -2.68166,-1.4877 0.0522,2.57039 0.0522,2.57039 1.31876,6.09357 -3.35897,7.41246 -3.35897,7.41246 0,0 -12.01849,2.71803 -12.77545,4.67982 -0.75696,1.96178 -2.34378,1.92938 -2.42569,0.93379 -0.0819,-0.99558 -1.62665,-1.53597 -5.58932,-0.10438 -3.96268,1.4316 -8.80722,-0.28061 -8.80722,-0.28061 -12.41022,8.93093 -15.69052,8.19899 -15.69052,8.19899 0.93488,-0.64482 1.61902,-2.15439 1.61902,-2.15439 0,0 -2.42178,2.515 -4.0907,0.74827 -1.66892,-1.76672 -3.99407,-1.18287 -3.99407,-1.18287 -8.44064,0.87947 -8.96483,9.84384 -8.96483,9.84384 -1.42502,-9.15665 2.61098,-9.93732 5.84099,-11.82305 3.23,-1.88572 1.603,-3.11092 1.603,-3.11092 -5.93318,-2.36723 -9.90999,4.45554 -9.90999,4.45554 1.48821,-8.51799 9.84126,-7.8574 9.84126,-7.8574 l 0.62477,-1.86965 c -6.351,-1.89135 -9.57513,2.03605 -9.57513,2.03605 2.49746,-5.7662 5.74487,-5.53972 5.74487,-5.53972 0,0 5.64806,0.21259 5.98878,-0.30902 0.34072,-0.5216 -0.60978,-1.27279 -0.60978,-1.27279 0,0 2.10876,0.13507 2.95021,-0.18862 0.84145,-0.32368 -0.36897,-1.28003 -0.36897,-1.28003 0,0 0.31587,-1.09749 2.88199,0.27182 2.56613,1.36931 5.42965,-0.12971 5.42965,-0.12971 0,0 0.96846,-0.77814 2.33267,-0.37517 1.36422,0.403 5.09737,0.33693 5.09737,0.33693 l -4.77852,-1.62522 c 0,0 7.77606,1.80846 8.96121,0.8971 1.18514,-0.91135 6.1867,-1.77663 6.1867,-1.77663 -2.49057,-1.97194 -14.86989,-4.33979 -14.86989,-4.33979 0.06,0.87041 2.08307,2.1761 2.08307,2.1761 -3.45555,-0.55985 -6.36085,-3.56878 -6.36085,-3.56878 l -1.46968,0.25012 c 0,0 -2.04469,-2.68195 -4.12016,-3.70676 -2.07552,-1.0248 0.0186,1.42834 0.0186,1.42834 -3.5068,0.47782 -4.03058,-8.25193 -4.15065,-6.30762 -0.12006,1.94431 -1.11259,4.22351 -1.11259,4.22351 0,0 -0.57991,-4.45308 -1.28933,-5.12992 -0.70942,-0.67684 -0.86506,2.88871 -0.86506,2.88871 0,0 -0.2682,-3.98865 -0.2682,-3.13779 0,0.85085 -0.91209,1.02009 -0.91209,1.02009 -0.0599,-2.27321 -1.37925,-3.94239 -1.37925,-3.94239 l -0.26303,1.6583 -0.96945,-1.20975 -0.45217,0.91984 c 0,0 -1.25508,-8.40057 -1.21078,-4.91029 0.0443,3.49027 -3.20045,7.46385 -1.89704,5.03225 1.30342,-2.43162 0.66608,-11.75687 0.59738,-8.07083 -0.0687,3.68605 -2.53783,7.77265 -2.53783,7.77265 0,0 3.04164,-6.99457 0.80822,-10.37507 -2.23343,-3.38051 -1.95389,-5.68906 -1.95389,-5.68906 0,0 3.05363,-2.78794 3.7791,-6.2389 0.72548,-3.45095 -2.55591,1.78956 -2.55591,1.78956 1.79141,-6.36249 6.76983,-9.18661 4.60902,-7.7618 -2.16082,1.42481 -3.86282,1.09657 -3.86282,1.09657 0,0 1.77121,-0.1999 3.46749,-2.32906 1.69628,-2.12916 8.5041,-4.06136 9.12348,-4.58059 0.61936,-0.51924 -0.20568,-1.04852 -0.20568,-1.04852 l -2.48408,-3.64681 c -2.00165,4.79768 -4.70049,2.01487 -4.70049,2.01487 0,0 3.70874,0.38088 2.73833,-2.57607 -0.97042,-2.95695 -2.52904,-3.18844 -2.52904,-3.18844 0,0 0.3082,-2.41238 -0.15968,-3.04271 -0.46787,-0.63033 -1.61489,1.54203 -1.61489,1.54203 0.52279,-2.63945 0.0263,-4.75352 -0.62063,-5.9154 -0.64691,-1.16188 -1.69189,-0.93483 -1.69189,-0.93483 0,0 0.71975,-5.76532 -0.42478,-5.33714 -1.14453,0.42823 -3.86281,0.46147 -3.86281,0.46147 0,0 1.95448,-2.52688 -0.11783,-1.8309 -2.0723,0.69601 -4.11189,0.0341 -4.11189,0.0341 0,0 1.01594,-1.11252 0.70435,-2.06757 -0.3116,-0.95505 -3.21878,-0.69332 -2.25826,-1.17358 0.96052,-0.48025 0.72006,-0.3595 -4.86895,-0.0853 -5.58902,0.27424 -6.46524,6.35568 -6.46524,6.35568 1.20628,4.57828 10.42882,6.21203 10.42882,6.21203 -2.76953,1.27404 -8.57893,0.12939 -10.84688,-1.37718 -2.26795,-1.50657 -4.06901,-2.04535 -4.06901,-2.04535 -0.93838,2.86705 7.46053,6.70501 7.46053,6.70501 -7.01212,-0.0945 -11.0296,-4.54874 -13.33459,-6.0327 -2.30498,-1.48396 0.33745,6.7262 0.33745,6.7262 -2.89656,-2.16481 -3.95893,-4.6762 -3.95893,-4.6762 -1.14139,-7.16413 -0.11111,-18.11982 -0.11111,-18.11982 l -0.73587,0.0703 c 0,0 4.25643,-3.73936 2.66702,-3.21376 -1.58942,0.52561 -1.82934,-1.58957 -1.82934,-1.58957 0,0 0.44043,2.06886 2.29495,-0.22686 1.85453,-2.29571 5.62349,-2.69582 6.21874,-3.2892 0.59526,-0.59338 0.24443,-1.59835 0.24443,-1.59835 0,0 1.20113,1.16024 2.6293,0.53743 1.42816,-0.6228 4.84156,-0.37672 4.84156,-0.37672 l -0.0703,-0.87747 c 0,0 2.14121,2.33366 4.51239,2.23966 2.37116,-0.0941 2.68665,-1.52807 2.68665,-1.52807 0,0 0.46745,3.04576 3.86954,3.12746 3.40208,0.0817 7.47292,2.7745 7.47292,2.7745 2.96623,0.12905 0.091,-1.63142 0.091,-1.63142 -3.84706,0.0479 -6.64713,-2.74557 -6.64713,-2.74557 0,0 2.27167,1.02381 2.81481,-0.61185 0.54314,-1.63566 -1.88671,-1.1715 -1.88671,-1.1715 l 2.05414,-2.45412 c -1.88561,0.71478 -4.47104,-1.45159 -4.47104,-1.45159 0,0 3.43689,1.41367 4.67671,-1.18081 1.23984,-2.59447 -1.49396,-2.82049 -1.49396,-2.82049 -2.41623,0.95659 -7.3887,0.55603 -7.3887,0.55603 l 2.59364,-0.41031 c -3.84125,-0.21281 -5.74487,-2.58744 -5.74487,-2.58744 3.30643,-0.12392 -2.38486,-3.68194 -2.38486,-3.68194 0,0 2.5126,-0.47576 -0.0129,-1.77044 -2.52554,-1.29467 -2.09342,-3.72742 -2.09342,-3.72742 -0.8742,-0.75076 -1.38854,-2.14405 -1.38854,-2.14405 l 2.31614,0.95394 c -1.27759,-1.43926 -3.01532,-4.60385 -3.01532,-4.60385 1.58709,1.84602 2.36058,1.44642 2.36058,1.44642 1.08574,-1.08575 -1.44281,-3.14296 -1.44281,-3.14296 2.18155,-1.42434 0.63045,-2.37453 0.63045,-2.37453 -1.13157,-0.51784 -2.53938,-3.651978 -2.53938,-3.651978 l 2.96055,1.329118 -3.5264,-6.27817 3.05821,1.92288 0.008,-2.233972 -5.62085,-2.749186 c 4.10162,-0.196776 4.34134,-1.973523 4.34134,-1.973523 0,0 -5.09956,-3.737348 -4.03645,-3.202389 1.06312,0.534957 1.92391,-0.01188 1.92391,-0.01188 -0.49096,-4.651696 -5.41362,-4.864303 -5.41362,-4.864303 3.90012,-0.664121 -0.98876,-4.278428 -2.83238,-4.78007 -1.84363,-0.501641 -1.60869,1.390613 -1.60869,1.390613 -1.56719,0.262304 -3.47405,2.062877 -5.04982,4.307747 -1.57578,2.24487 -3.30833,3.279903 -3.30833,3.279903 -1.30522,4.142946 5.81257,7.061585 5.81257,7.061585 -3.72187,1.30332 -9.72086,-3.360519 -9.72086,-3.360519 0.30632,5.255173 6.8523,10.360608 6.8523,10.360608 -7.78202,-0.838612 -11.01173,-9.13846 -11.01173,-9.13846 -0.79373,2.522406 3.04012,9.602515 3.04012,9.602515 -7.88747,-5.452205 -8.35399,-16.421737 -8.35399,-16.421737 l -1.26039,1.682068 0.71572,-4.511869 -3.07733,3.177067 c 0,0 1.11337,-2.363162 2.25464,-4.145484 1.14128,-1.782322 -1.26142,-1.815393 -1.26142,-1.815393 0.0882,-1.176484 1.12448,-2.607592 1.12448,-2.607592 1.8626,-0.960993 1.69447,-4.496884 1.69447,-4.496884 l 3.17345,-2.556433 c 0.4857,-2.520946 2.93315,-3.096452 2.93315,-3.096452 3.27226,-0.487486 1.61696,-2.077909 1.61696,-2.077909 3.38185,-0.551377 11.7383,-4.512386 11.7383,-4.512386 -1.93824,-0.540289 -8.19226,1.437638 -8.19226,1.437638 l 4.85965,-1.74563 c 3.67177,-1.318719 5.47474,-0.45319 6.13864,0.04961 -1.17097,-1.20366 -0.0698,-1.997811 -0.0698,-1.997811 0.93229,2.23176 3.75687,1.978174 3.75687,1.978174 6.21691,-2.212589 8.97362,3.611149 8.97362,3.611149 0.62496,-0.887831 1.80661,-1.350822 1.80661,-1.350822 0,1.248835 1.02681,2.308903 1.02681,2.308903 4.26856,2.130789 4.74648,4.770251 4.74648,4.770251 1.35164,-2.262547 1.85415,-0.4439 1.85415,-0.4439 -0.22611,4.579538 1.09192,3.89692 1.09192,3.89692 l 0.84749,6.101436 1.08211,-4.866886 c 0,0 0.58297,9.654517 1.08055,12.112955 0.49758,2.458438 2.39004,0.225826 2.39004,0.225826 -0.0715,2.959412 3.01192,2.983578 2.48408,2.108399 -0.52783,-0.87518 -2.77037,-4.647262 -2.77037,-4.647262 0,0 7.55223,5.16575 5.72058,2.829285 -1.83165,-2.336465 -1.22111,-6.201689 -1.22111,-6.201689 0,0 -4.30773,-5.72003 -1.95027,-3.743957 2.35746,1.976074 4.67878,1.28881 4.67878,1.28881 0,0 -3.37888,-5.08575 -0.99322,-3.117639 2.38566,1.968111 4.25039,1.028878 4.25039,1.028878 L 699.75446,69.9823 c 0,0 2.07406,0.468533 1.12913,-0.835091 -0.94493,-1.303623 -1.28054,-3.394625 -1.28054,-3.394625 0,0 1.35889,1.977724 2.47995,1.005623 1.12105,-0.972102 -0.95704,-3.557922 -0.95704,-3.557922 0.78746,-0.261604 4.74634,-7.009908 3.65455,-7.992277 -1.0918,-0.982368 -1.92804,-3.08715 -1.92804,-3.08715 0,0 1.33919,0.404385 0.91829,-2.005046 -0.42091,-2.40943 -3.17811,-2.8236 -3.17811,-2.8236 0.99693,-2.808382 -4.13928,-5.727299 -4.13928,-5.727299 l 3.47679,0.835608 c -0.92647,-2.329867 -0.0134,-4.578532 -0.0134,-4.578532 1.31674,4.069092 3.32124,3.658691 3.32124,3.658691 0,-2.118965 1.29708,-4.9413 1.29708,-4.9413 z m 92.86152,92.851705 c -0.0165,0.19886 -0.11782,0.32039 -0.11782,0.32039 0,0 0.0537,-0.1323 0.11782,-0.32039 z m -22.28133,23.05234 c 0.16268,0.18674 0.31703,0.38349 0.45114,0.60099 0,0 -0.27392,-0.36326 -0.45114,-0.60099 z M 709.66885,74.096326 c -2.45893,-0.01367 -5.18522,1.238167 -5.18522,1.238167 0,0 -1.18518,4.6897 1.07436,9.63042 2.25953,4.940716 9.43353,4.888074 9.43353,4.888074 0.97274,-2.224853 1.00149,-7.959204 1.00149,-7.959204 l -6.17482,4.63951 1.04903,-7.920447 0.84595,-0.103353 c 0,0 1.2051,1.128789 1.92391,-0.180867 0.71882,-1.309657 -0.74104,-1.928048 -0.74104,-1.928048 l -0.16433,-1.085722 c -0.72445,-0.903436 -1.86199,-1.211853 -3.06286,-1.21853 z m 24.95042,11.187431 c -0.44325,0.02084 -0.94827,1.034045 -0.94827,1.034045 1.19961,7.069788 -2.97139,8.882662 -2.97139,8.882662 -2.13385,-2.530196 -3.40135,-5.105632 -3.40135,-5.105632 0,0 0.31144,-1.837127 0.96945,-0.903304 0.65802,0.933824 1.68635,0.434233 1.98024,-0.437182 0.2939,-0.871414 -1.19259,-1.321179 -1.86345,-0.734322 -0.67086,0.586857 -1.38906,0.60048 -1.38906,0.60048 l -4.18941,4.413167 c 9.62874,7.253239 19.9807,-0.443384 19.9807,-0.443384 -0.53549,-7.105847 -8.16746,-7.30653 -8.16746,-7.30653 z" /></svg>
